<mxfile host="app.diagrams.net" modified="2022-03-20T15:38:18.245Z" agent="5.0 (Windows NT 10.0; Win64; x64) AppleWebKit/537.36 (KHTML, like Gecko) Chrome/99.0.4844.74 Safari/537.36" etag="ckrQqdP1NXoAFFv7IHGC" version="17.1.3" type="github">
  <diagram id="3aerddFVqTZ29VyVs5XX" name="Page-1">
    <mxGraphModel dx="2324" dy="2207" grid="1" gridSize="10" guides="1" tooltips="1" connect="1" arrows="1" fold="1" page="1" pageScale="1" pageWidth="827" pageHeight="1169" math="0" shadow="0">
      <root>
        <mxCell id="0" />
        <mxCell id="1" parent="0" />
        <mxCell id="qvX6dsS40rfXMIxyPMCP-5" value="Admin" style="swimlane;fontStyle=1;align=center;verticalAlign=top;childLayout=stackLayout;horizontal=1;startSize=26;horizontalStack=0;resizeParent=1;resizeParentMax=0;resizeLast=0;collapsible=1;marginBottom=0;" parent="1" vertex="1">
          <mxGeometry x="750" y="-40" width="160" height="190" as="geometry" />
        </mxCell>
        <mxCell id="qvX6dsS40rfXMIxyPMCP-6" value="- Id: String&#xa;- Name: String" style="text;strokeColor=none;fillColor=none;align=left;verticalAlign=top;spacingLeft=4;spacingRight=4;overflow=hidden;rotatable=0;points=[[0,0.5],[1,0.5]];portConstraint=eastwest;" parent="qvX6dsS40rfXMIxyPMCP-5" vertex="1">
          <mxGeometry y="26" width="160" height="44" as="geometry" />
        </mxCell>
        <mxCell id="qvX6dsS40rfXMIxyPMCP-7" value="" style="line;strokeWidth=1;fillColor=none;align=left;verticalAlign=middle;spacingTop=-1;spacingLeft=3;spacingRight=3;rotatable=0;labelPosition=right;points=[];portConstraint=eastwest;" parent="qvX6dsS40rfXMIxyPMCP-5" vertex="1">
          <mxGeometry y="70" width="160" height="8" as="geometry" />
        </mxCell>
        <mxCell id="qvX6dsS40rfXMIxyPMCP-8" value="+ addMaid&#xa;+ viewMaidList&#xa;+ editMaidList&#xa;+ deleteMaidList&#xa;+ viewOrder&#xa;+ viewUser&#xa;+ getContactSupport" style="text;strokeColor=none;fillColor=none;align=left;verticalAlign=top;spacingLeft=4;spacingRight=4;overflow=hidden;rotatable=0;points=[[0,0.5],[1,0.5]];portConstraint=eastwest;" parent="qvX6dsS40rfXMIxyPMCP-5" vertex="1">
          <mxGeometry y="78" width="160" height="112" as="geometry" />
        </mxCell>
        <mxCell id="qvX6dsS40rfXMIxyPMCP-9" value="Registration" style="swimlane;fontStyle=0;childLayout=stackLayout;horizontal=1;startSize=26;fillColor=none;horizontalStack=0;resizeParent=1;resizeParentMax=0;resizeLast=0;collapsible=1;marginBottom=0;" parent="1" vertex="1">
          <mxGeometry x="734" y="200" width="180" height="220" as="geometry" />
        </mxCell>
        <mxCell id="qvX6dsS40rfXMIxyPMCP-14" value="+ getId(): String&#xa;+ getName(): String&#xa;+ getAdress(): String&#xa;+ getEmail(): String&#xa;+ getPhoneNumber(): String&#xa;+ getDate(): Date&#xa;+ setDate(date : Date)&#xa;+ getRole() : String&#xa;+ setRole() : String&#xa;+ getUsername(): String&#xa;+ setUsername(): String&#xa;+ getPassword(): String&#xa;+ setPassword(): String" style="text;strokeColor=none;fillColor=none;align=left;verticalAlign=top;spacingLeft=4;spacingRight=4;overflow=hidden;rotatable=0;points=[[0,0.5],[1,0.5]];portConstraint=eastwest;" parent="qvX6dsS40rfXMIxyPMCP-9" vertex="1">
          <mxGeometry y="26" width="180" height="194" as="geometry" />
        </mxCell>
        <mxCell id="qvX6dsS40rfXMIxyPMCP-88" style="edgeStyle=orthogonalEdgeStyle;rounded=0;orthogonalLoop=1;jettySize=auto;html=1;entryX=0.538;entryY=1.057;entryDx=0;entryDy=0;entryPerimeter=0;" parent="1" source="qvX6dsS40rfXMIxyPMCP-15" target="qvX6dsS40rfXMIxyPMCP-80" edge="1">
          <mxGeometry relative="1" as="geometry">
            <mxPoint x="1070" y="-80" as="targetPoint" />
            <Array as="points">
              <mxPoint x="1140" y="5" />
              <mxPoint x="1080" y="5" />
              <mxPoint x="1080" y="-80" />
              <mxPoint x="880" y="-80" />
            </Array>
          </mxGeometry>
        </mxCell>
        <mxCell id="qvX6dsS40rfXMIxyPMCP-15" value="Maid" style="swimlane;fontStyle=0;childLayout=stackLayout;horizontal=1;startSize=26;fillColor=none;horizontalStack=0;resizeParent=1;resizeParentMax=0;resizeLast=0;collapsible=1;marginBottom=0;" parent="1" vertex="1">
          <mxGeometry x="1050" y="90" width="180" height="310" as="geometry" />
        </mxCell>
        <mxCell id="qvX6dsS40rfXMIxyPMCP-16" value="+ getId(): String&#xa;+ getName(): String&#xa;+ getAdress(): String&#xa;+ getAge(): Integer&#xa;+ getGender(): String&#xa;+ getEmail(): String&#xa;+ getPhoneNumber(): String&#xa;+ getStatus(): Boolean&#xa;+ setName(): String&#xa;+ setAdress(): String&#xa;+ setAge(): Integer&#xa;+ setGender(): String&#xa;+ setEmail(): String&#xa;+ setPhoneNumber(): String&#xa;+ setStatus(): Boolean&#xa;+ paymentDetail()&#xa;+ hiringDetail()&#xa;+ displayRateing()&#xa;+ bookingDetail()" style="text;strokeColor=none;fillColor=none;align=left;verticalAlign=top;spacingLeft=4;spacingRight=4;overflow=hidden;rotatable=0;points=[[0,0.5],[1,0.5]];portConstraint=eastwest;" parent="qvX6dsS40rfXMIxyPMCP-15" vertex="1">
          <mxGeometry y="26" width="180" height="284" as="geometry" />
        </mxCell>
        <mxCell id="qvX6dsS40rfXMIxyPMCP-86" style="edgeStyle=orthogonalEdgeStyle;rounded=0;orthogonalLoop=1;jettySize=auto;html=1;entryX=-0.036;entryY=0.154;entryDx=0;entryDy=0;entryPerimeter=0;" parent="1" source="qvX6dsS40rfXMIxyPMCP-18" target="qvX6dsS40rfXMIxyPMCP-80" edge="1">
          <mxGeometry relative="1" as="geometry">
            <mxPoint x="580" y="-130" as="targetPoint" />
            <Array as="points">
              <mxPoint x="580" y="-130" />
            </Array>
          </mxGeometry>
        </mxCell>
        <mxCell id="qvX6dsS40rfXMIxyPMCP-18" value="User" style="swimlane;fontStyle=0;childLayout=stackLayout;horizontal=1;startSize=26;fillColor=none;horizontalStack=0;resizeParent=1;resizeParentMax=0;resizeLast=0;collapsible=1;marginBottom=0;" parent="1" vertex="1">
          <mxGeometry x="490" y="-70" width="180" height="310" as="geometry" />
        </mxCell>
        <mxCell id="qvX6dsS40rfXMIxyPMCP-19" value="+ getId(): String&#xa;+ getName(): String&#xa;+ getAdress(): String&#xa;+ getAge(): Integer&#xa;+ getGender(): String&#xa;+ getEmail(): String&#xa;+ getPhoneNumber(): String&#xa;+ setName(): String&#xa;+ setAdress(): String&#xa;+ setAge(): Integer&#xa;+ setGender(): String&#xa;+ setEmail(): String&#xa;+ setPhoneNumber(): String&#xa;+ paymentDetail()&#xa;+ hiringDetail()&#xa;+ feedback()&#xa;+ booking()&#xa;+ payment()&#xa;+ orderDetail()" style="text;strokeColor=none;fillColor=none;align=left;verticalAlign=top;spacingLeft=4;spacingRight=4;overflow=hidden;rotatable=0;points=[[0,0.5],[1,0.5]];portConstraint=eastwest;" parent="qvX6dsS40rfXMIxyPMCP-18" vertex="1">
          <mxGeometry y="26" width="180" height="284" as="geometry" />
        </mxCell>
        <mxCell id="qvX6dsS40rfXMIxyPMCP-62" style="edgeStyle=orthogonalEdgeStyle;rounded=0;orthogonalLoop=1;jettySize=auto;html=1;entryX=0.439;entryY=-0.004;entryDx=0;entryDy=0;entryPerimeter=0;" parent="1" source="qvX6dsS40rfXMIxyPMCP-22" target="qvX6dsS40rfXMIxyPMCP-34" edge="1">
          <mxGeometry relative="1" as="geometry">
            <mxPoint x="824" y="750" as="targetPoint" />
          </mxGeometry>
        </mxCell>
        <mxCell id="qvX6dsS40rfXMIxyPMCP-22" value="Payment" style="swimlane;fontStyle=0;childLayout=stackLayout;horizontal=1;startSize=26;fillColor=none;horizontalStack=0;resizeParent=1;resizeParentMax=0;resizeLast=0;collapsible=1;marginBottom=0;" parent="1" vertex="1">
          <mxGeometry x="754" y="570" width="140" height="110" as="geometry" />
        </mxCell>
        <mxCell id="qvX6dsS40rfXMIxyPMCP-23" value="- paymentId: Integer&#xa;- paymentDetail: String&#xa;- paymentType: String&#xa;+ getPaymentId()&#xa;+ paymentInfo()" style="text;strokeColor=none;fillColor=none;align=left;verticalAlign=top;spacingLeft=4;spacingRight=4;overflow=hidden;rotatable=0;points=[[0,0.5],[1,0.5]];portConstraint=eastwest;" parent="qvX6dsS40rfXMIxyPMCP-22" vertex="1">
          <mxGeometry y="26" width="140" height="84" as="geometry" />
        </mxCell>
        <mxCell id="qvX6dsS40rfXMIxyPMCP-61" style="edgeStyle=orthogonalEdgeStyle;rounded=0;orthogonalLoop=1;jettySize=auto;html=1;entryX=0.564;entryY=-0.009;entryDx=0;entryDy=0;entryPerimeter=0;" parent="1" source="qvX6dsS40rfXMIxyPMCP-26" target="qvX6dsS40rfXMIxyPMCP-22" edge="1">
          <mxGeometry relative="1" as="geometry">
            <Array as="points">
              <mxPoint x="833" y="530" />
              <mxPoint x="833" y="530" />
            </Array>
          </mxGeometry>
        </mxCell>
        <mxCell id="qvX6dsS40rfXMIxyPMCP-26" value="Order" style="swimlane;fontStyle=0;childLayout=stackLayout;horizontal=1;startSize=26;fillColor=none;horizontalStack=0;resizeParent=1;resizeParentMax=0;resizeLast=0;collapsible=1;marginBottom=0;" parent="1" vertex="1">
          <mxGeometry x="764" y="470" width="140" height="52" as="geometry" />
        </mxCell>
        <mxCell id="qvX6dsS40rfXMIxyPMCP-27" value="+ createOrder" style="text;strokeColor=none;fillColor=none;align=left;verticalAlign=top;spacingLeft=4;spacingRight=4;overflow=hidden;rotatable=0;points=[[0,0.5],[1,0.5]];portConstraint=eastwest;" parent="qvX6dsS40rfXMIxyPMCP-26" vertex="1">
          <mxGeometry y="26" width="140" height="26" as="geometry" />
        </mxCell>
        <mxCell id="qvX6dsS40rfXMIxyPMCP-30" value="Credit" style="swimlane;fontStyle=1;align=center;verticalAlign=top;childLayout=stackLayout;horizontal=1;startSize=26;horizontalStack=0;resizeParent=1;resizeParentMax=0;resizeLast=0;collapsible=1;marginBottom=0;" parent="1" vertex="1">
          <mxGeometry x="520" y="740" width="160" height="80" as="geometry" />
        </mxCell>
        <mxCell id="qvX6dsS40rfXMIxyPMCP-31" value="+ number(): String&#xa;+ type(): String&#xa;+ expireDate(): date" style="text;strokeColor=none;fillColor=none;align=left;verticalAlign=top;spacingLeft=4;spacingRight=4;overflow=hidden;rotatable=0;points=[[0,0.5],[1,0.5]];portConstraint=eastwest;" parent="qvX6dsS40rfXMIxyPMCP-30" vertex="1">
          <mxGeometry y="26" width="160" height="54" as="geometry" />
        </mxCell>
        <mxCell id="qvX6dsS40rfXMIxyPMCP-34" value="Cash" style="swimlane;fontStyle=1;align=center;verticalAlign=top;childLayout=stackLayout;horizontal=1;startSize=26;horizontalStack=0;resizeParent=1;resizeParentMax=0;resizeLast=0;collapsible=1;marginBottom=0;" parent="1" vertex="1">
          <mxGeometry x="754" y="755" width="160" height="50" as="geometry" />
        </mxCell>
        <mxCell id="qvX6dsS40rfXMIxyPMCP-35" value="+ cashTendered : float" style="text;strokeColor=none;fillColor=none;align=left;verticalAlign=top;spacingLeft=4;spacingRight=4;overflow=hidden;rotatable=0;points=[[0,0.5],[1,0.5]];portConstraint=eastwest;" parent="qvX6dsS40rfXMIxyPMCP-34" vertex="1">
          <mxGeometry y="26" width="160" height="24" as="geometry" />
        </mxCell>
        <mxCell id="qvX6dsS40rfXMIxyPMCP-36" value="OrderDetail" style="swimlane;fontStyle=0;childLayout=stackLayout;horizontal=1;startSize=26;fillColor=none;horizontalStack=0;resizeParent=1;resizeParentMax=0;resizeLast=0;collapsible=1;marginBottom=0;" parent="1" vertex="1">
          <mxGeometry x="1060" y="454.5" width="140" height="70" as="geometry" />
        </mxCell>
        <mxCell id="qvX6dsS40rfXMIxyPMCP-37" value="+ orderId(): String&#xa;+ hiringDetail()" style="text;strokeColor=none;fillColor=none;align=left;verticalAlign=top;spacingLeft=4;spacingRight=4;overflow=hidden;rotatable=0;points=[[0,0.5],[1,0.5]];portConstraint=eastwest;" parent="qvX6dsS40rfXMIxyPMCP-36" vertex="1">
          <mxGeometry y="26" width="140" height="44" as="geometry" />
        </mxCell>
        <mxCell id="qvX6dsS40rfXMIxyPMCP-38" value="Check" style="swimlane;fontStyle=1;align=center;verticalAlign=top;childLayout=stackLayout;horizontal=1;startSize=26;horizontalStack=0;resizeParent=1;resizeParentMax=0;resizeLast=0;collapsible=1;marginBottom=0;" parent="1" vertex="1">
          <mxGeometry x="990" y="740" width="160" height="80" as="geometry" />
        </mxCell>
        <mxCell id="qvX6dsS40rfXMIxyPMCP-39" value="- name: String&#xa;- bankID: String&#xa;+authorized()" style="text;strokeColor=none;fillColor=none;align=left;verticalAlign=top;spacingLeft=4;spacingRight=4;overflow=hidden;rotatable=0;points=[[0,0.5],[1,0.5]];portConstraint=eastwest;" parent="qvX6dsS40rfXMIxyPMCP-38" vertex="1">
          <mxGeometry y="26" width="160" height="54" as="geometry" />
        </mxCell>
        <mxCell id="qvX6dsS40rfXMIxyPMCP-44" value="" style="endArrow=none;html=1;rounded=0;entryX=0.5;entryY=1.004;entryDx=0;entryDy=0;entryPerimeter=0;" parent="1" target="qvX6dsS40rfXMIxyPMCP-19" edge="1">
          <mxGeometry width="50" height="50" relative="1" as="geometry">
            <mxPoint x="580" y="340" as="sourcePoint" />
            <mxPoint x="600" y="270" as="targetPoint" />
          </mxGeometry>
        </mxCell>
        <mxCell id="qvX6dsS40rfXMIxyPMCP-48" value="" style="endArrow=none;html=1;rounded=0;entryX=-0.002;entryY=0.573;entryDx=0;entryDy=0;entryPerimeter=0;exitX=1.007;exitY=0.279;exitDx=0;exitDy=0;exitPerimeter=0;" parent="1" source="qvX6dsS40rfXMIxyPMCP-14" target="qvX6dsS40rfXMIxyPMCP-16" edge="1">
          <mxGeometry width="50" height="50" relative="1" as="geometry">
            <mxPoint x="940" y="300" as="sourcePoint" />
            <mxPoint x="870" y="330" as="targetPoint" />
          </mxGeometry>
        </mxCell>
        <mxCell id="qvX6dsS40rfXMIxyPMCP-51" value="" style="endArrow=none;html=1;rounded=0;" parent="1" edge="1">
          <mxGeometry width="50" height="50" relative="1" as="geometry">
            <mxPoint x="580" y="340" as="sourcePoint" />
            <mxPoint x="730" y="340" as="targetPoint" />
          </mxGeometry>
        </mxCell>
        <mxCell id="qvX6dsS40rfXMIxyPMCP-55" value="" style="endArrow=none;html=1;rounded=0;exitX=1.002;exitY=0.404;exitDx=0;exitDy=0;exitPerimeter=0;" parent="1" source="qvX6dsS40rfXMIxyPMCP-19" edge="1">
          <mxGeometry width="50" height="50" relative="1" as="geometry">
            <mxPoint x="690" y="100" as="sourcePoint" />
            <mxPoint x="750" y="70" as="targetPoint" />
          </mxGeometry>
        </mxCell>
        <mxCell id="qvX6dsS40rfXMIxyPMCP-56" value="" style="endArrow=none;html=1;rounded=0;entryX=-0.007;entryY=0.064;entryDx=0;entryDy=0;entryPerimeter=0;" parent="1" target="qvX6dsS40rfXMIxyPMCP-15" edge="1">
          <mxGeometry width="50" height="50" relative="1" as="geometry">
            <mxPoint x="910" y="110" as="sourcePoint" />
            <mxPoint x="990" y="110" as="targetPoint" />
          </mxGeometry>
        </mxCell>
        <mxCell id="qvX6dsS40rfXMIxyPMCP-57" value="" style="endArrow=none;html=1;rounded=0;exitX=1;exitY=0.5;exitDx=0;exitDy=0;entryX=-0.011;entryY=0.684;entryDx=0;entryDy=0;entryPerimeter=0;" parent="1" source="qvX6dsS40rfXMIxyPMCP-27" target="qvX6dsS40rfXMIxyPMCP-37" edge="1">
          <mxGeometry width="50" height="50" relative="1" as="geometry">
            <mxPoint x="950" y="500" as="sourcePoint" />
            <mxPoint x="1030" y="503" as="targetPoint" />
          </mxGeometry>
        </mxCell>
        <mxCell id="qvX6dsS40rfXMIxyPMCP-58" value="" style="endArrow=none;html=1;rounded=0;" parent="1" edge="1">
          <mxGeometry width="50" height="50" relative="1" as="geometry">
            <mxPoint x="830" y="430" as="sourcePoint" />
            <mxPoint x="1110" y="430" as="targetPoint" />
          </mxGeometry>
        </mxCell>
        <mxCell id="qvX6dsS40rfXMIxyPMCP-59" value="" style="endArrow=none;html=1;rounded=0;entryX=0.34;entryY=1.004;entryDx=0;entryDy=0;entryPerimeter=0;" parent="1" target="qvX6dsS40rfXMIxyPMCP-16" edge="1">
          <mxGeometry width="50" height="50" relative="1" as="geometry">
            <mxPoint x="1111" y="430" as="sourcePoint" />
            <mxPoint x="770" y="590" as="targetPoint" />
          </mxGeometry>
        </mxCell>
        <mxCell id="qvX6dsS40rfXMIxyPMCP-60" value="" style="endArrow=none;html=1;rounded=0;exitX=0.469;exitY=-0.005;exitDx=0;exitDy=0;exitPerimeter=0;" parent="1" source="qvX6dsS40rfXMIxyPMCP-26" edge="1">
          <mxGeometry width="50" height="50" relative="1" as="geometry">
            <mxPoint x="830" y="460" as="sourcePoint" />
            <mxPoint x="830" y="430" as="targetPoint" />
          </mxGeometry>
        </mxCell>
        <mxCell id="qvX6dsS40rfXMIxyPMCP-63" style="edgeStyle=orthogonalEdgeStyle;rounded=0;orthogonalLoop=1;jettySize=auto;html=1;entryX=0.5;entryY=0;entryDx=0;entryDy=0;" parent="1" source="qvX6dsS40rfXMIxyPMCP-23" target="qvX6dsS40rfXMIxyPMCP-30" edge="1">
          <mxGeometry relative="1" as="geometry">
            <mxPoint x="600" y="640" as="targetPoint" />
            <Array as="points">
              <mxPoint x="600" y="638" />
            </Array>
          </mxGeometry>
        </mxCell>
        <mxCell id="qvX6dsS40rfXMIxyPMCP-64" style="edgeStyle=orthogonalEdgeStyle;rounded=0;orthogonalLoop=1;jettySize=auto;html=1;exitX=1;exitY=0.5;exitDx=0;exitDy=0;" parent="1" source="qvX6dsS40rfXMIxyPMCP-23" edge="1">
          <mxGeometry relative="1" as="geometry">
            <mxPoint x="1080" y="740" as="targetPoint" />
            <Array as="points">
              <mxPoint x="894" y="630" />
              <mxPoint x="1080" y="630" />
            </Array>
          </mxGeometry>
        </mxCell>
        <mxCell id="qvX6dsS40rfXMIxyPMCP-65" value="" style="endArrow=none;html=1;rounded=0;" parent="1" source="qvX6dsS40rfXMIxyPMCP-19" edge="1">
          <mxGeometry width="50" height="50" relative="1" as="geometry">
            <mxPoint x="419.28932188134524" y="148" as="sourcePoint" />
            <mxPoint x="450" y="100" as="targetPoint" />
          </mxGeometry>
        </mxCell>
        <mxCell id="qvX6dsS40rfXMIxyPMCP-66" value="" style="endArrow=none;html=1;rounded=0;" parent="1" edge="1">
          <mxGeometry width="50" height="50" relative="1" as="geometry">
            <mxPoint x="450" y="500" as="sourcePoint" />
            <mxPoint x="450" y="100" as="targetPoint" />
          </mxGeometry>
        </mxCell>
        <mxCell id="qvX6dsS40rfXMIxyPMCP-67" value="" style="endArrow=none;html=1;rounded=0;entryX=0.006;entryY=0.149;entryDx=0;entryDy=0;entryPerimeter=0;" parent="1" target="qvX6dsS40rfXMIxyPMCP-27" edge="1">
          <mxGeometry width="50" height="50" relative="1" as="geometry">
            <mxPoint x="450" y="500" as="sourcePoint" />
            <mxPoint x="760" y="500" as="targetPoint" />
          </mxGeometry>
        </mxCell>
        <mxCell id="qvX6dsS40rfXMIxyPMCP-68" value="for" style="text;html=1;align=center;verticalAlign=middle;resizable=0;points=[];autosize=1;strokeColor=none;fillColor=none;" parent="1" vertex="1">
          <mxGeometry x="580" y="470" width="30" height="20" as="geometry" />
        </mxCell>
        <mxCell id="qvX6dsS40rfXMIxyPMCP-69" value="for" style="text;html=1;align=center;verticalAlign=middle;resizable=0;points=[];autosize=1;strokeColor=none;fillColor=none;" parent="1" vertex="1">
          <mxGeometry x="975" y="400" width="30" height="20" as="geometry" />
        </mxCell>
        <mxCell id="qvX6dsS40rfXMIxyPMCP-70" value="register" style="text;html=1;align=center;verticalAlign=middle;resizable=0;points=[];autosize=1;strokeColor=none;fillColor=none;" parent="1" vertex="1">
          <mxGeometry x="945" y="250" width="60" height="20" as="geometry" />
        </mxCell>
        <mxCell id="qvX6dsS40rfXMIxyPMCP-71" value="register" style="text;html=1;align=center;verticalAlign=middle;resizable=0;points=[];autosize=1;strokeColor=none;fillColor=none;" parent="1" vertex="1">
          <mxGeometry x="610" y="310" width="60" height="20" as="geometry" />
        </mxCell>
        <mxCell id="qvX6dsS40rfXMIxyPMCP-72" value="manage" style="text;html=1;align=center;verticalAlign=middle;resizable=0;points=[];autosize=1;strokeColor=none;fillColor=none;" parent="1" vertex="1">
          <mxGeometry x="674" y="40" width="60" height="20" as="geometry" />
        </mxCell>
        <mxCell id="qvX6dsS40rfXMIxyPMCP-73" value="manage" style="text;html=1;align=center;verticalAlign=middle;resizable=0;points=[];autosize=1;strokeColor=none;fillColor=none;" parent="1" vertex="1">
          <mxGeometry x="955" y="80" width="60" height="20" as="geometry" />
        </mxCell>
        <mxCell id="qvX6dsS40rfXMIxyPMCP-74" value="has" style="text;html=1;align=center;verticalAlign=middle;resizable=0;points=[];autosize=1;strokeColor=none;fillColor=none;" parent="1" vertex="1">
          <mxGeometry x="975" y="479.5" width="30" height="20" as="geometry" />
        </mxCell>
        <mxCell id="qvX6dsS40rfXMIxyPMCP-75" value="pay" style="text;html=1;align=center;verticalAlign=middle;resizable=0;points=[];autosize=1;strokeColor=none;fillColor=none;" parent="1" vertex="1">
          <mxGeometry x="850" y="540" width="30" height="20" as="geometry" />
        </mxCell>
        <mxCell id="qvX6dsS40rfXMIxyPMCP-76" value="payment" style="text;html=1;align=center;verticalAlign=middle;resizable=0;points=[];autosize=1;strokeColor=none;fillColor=none;" parent="1" vertex="1">
          <mxGeometry x="630" y="615" width="60" height="20" as="geometry" />
        </mxCell>
        <mxCell id="qvX6dsS40rfXMIxyPMCP-77" value="payment" style="text;html=1;align=center;verticalAlign=middle;resizable=0;points=[];autosize=1;strokeColor=none;fillColor=none;" parent="1" vertex="1">
          <mxGeometry x="834" y="700" width="60" height="20" as="geometry" />
        </mxCell>
        <mxCell id="qvX6dsS40rfXMIxyPMCP-78" value="payment" style="text;html=1;align=center;verticalAlign=middle;resizable=0;points=[];autosize=1;strokeColor=none;fillColor=none;" parent="1" vertex="1">
          <mxGeometry x="990" y="610" width="60" height="20" as="geometry" />
        </mxCell>
        <mxCell id="qvX6dsS40rfXMIxyPMCP-79" value="Account" style="swimlane;fontStyle=0;childLayout=stackLayout;horizontal=1;startSize=26;fillColor=none;horizontalStack=0;resizeParent=1;resizeParentMax=0;resizeLast=0;collapsible=1;marginBottom=0;" parent="1" vertex="1">
          <mxGeometry x="805" y="-160" width="140" height="60" as="geometry" />
        </mxCell>
        <mxCell id="qvX6dsS40rfXMIxyPMCP-80" value="+ editProfile()&#xa;+ Logout()" style="text;strokeColor=none;fillColor=none;align=left;verticalAlign=top;spacingLeft=4;spacingRight=4;overflow=hidden;rotatable=0;points=[[0,0.5],[1,0.5]];portConstraint=eastwest;" parent="qvX6dsS40rfXMIxyPMCP-79" vertex="1">
          <mxGeometry y="26" width="140" height="34" as="geometry" />
        </mxCell>
        <mxCell id="qvX6dsS40rfXMIxyPMCP-83" value="Logout" style="swimlane;fontStyle=0;childLayout=stackLayout;horizontal=1;startSize=26;fillColor=none;horizontalStack=0;resizeParent=1;resizeParentMax=0;resizeLast=0;collapsible=1;marginBottom=0;" parent="1" vertex="1">
          <mxGeometry x="1130" y="-100" width="140" height="52" as="geometry" />
        </mxCell>
        <mxCell id="qvX6dsS40rfXMIxyPMCP-84" value="+ onClickLogout()" style="text;strokeColor=none;fillColor=none;align=left;verticalAlign=top;spacingLeft=4;spacingRight=4;overflow=hidden;rotatable=0;points=[[0,0.5],[1,0.5]];portConstraint=eastwest;" parent="qvX6dsS40rfXMIxyPMCP-83" vertex="1">
          <mxGeometry y="26" width="140" height="26" as="geometry" />
        </mxCell>
        <mxCell id="qvX6dsS40rfXMIxyPMCP-87" style="edgeStyle=orthogonalEdgeStyle;rounded=0;orthogonalLoop=1;jettySize=auto;html=1;entryX=0.5;entryY=0;entryDx=0;entryDy=0;exitX=1.005;exitY=0.122;exitDx=0;exitDy=0;exitPerimeter=0;" parent="1" source="qvX6dsS40rfXMIxyPMCP-80" target="qvX6dsS40rfXMIxyPMCP-83" edge="1">
          <mxGeometry relative="1" as="geometry">
            <mxPoint x="1200" y="-121" as="targetPoint" />
            <mxPoint x="950" y="-130" as="sourcePoint" />
            <Array as="points">
              <mxPoint x="950" y="-131" />
              <mxPoint x="1200" y="-130" />
            </Array>
          </mxGeometry>
        </mxCell>
        <mxCell id="qvX6dsS40rfXMIxyPMCP-90" value="session end" style="text;html=1;align=center;verticalAlign=middle;resizable=0;points=[];autosize=1;strokeColor=none;fillColor=none;" parent="1" vertex="1">
          <mxGeometry x="1040" y="-160" width="80" height="20" as="geometry" />
        </mxCell>
      </root>
    </mxGraphModel>
  </diagram>
</mxfile>
